{
  "songbird-mixer": {
    "state": {
      "initialized": false,
      "tracks": [
        {
          "id": 0,
          "name": "kick",
          "type": "midi",
          "color": "#FF6B6B",
          "muted": false,
          "solo": false,
          "volume": 80,
          "pan": 0,
          "instrument": {
            "pluginId": null,
            "pluginName": null,
            "bypassed": false
          },
          "fx": {
            "pluginId": null,
            "pluginName": null,
            "bypassed": false
          },
          "channelStrip": {
            "pluginId": null,
            "pluginName": null,
            "bypassed": false
          },
          "notes": [
            {
              "pitch": 36,
              "beat": 0,
              "duration": 0.896,
              "velocity": 110
            },
            {
              "pitch": 36,
              "beat": 1,
              "duration": 0.896,
              "velocity": 110
            },
            {
              "pitch": 36,
              "beat": 2,
              "duration": 0.896,
              "velocity": 110
            },
            {
              "pitch": 36,
              "beat": 3,
              "duration": 0.896,
              "velocity": 110
            },
            {
              "pitch": 36,
              "beat": 4,
              "duration": 0.896,
              "velocity": 110
            },
            {
              "pitch": 36,
              "beat": 5,
              "duration": 0.896,
              "velocity": 110
            },
            {
              "pitch": 36,
              "beat": 6,
              "duration": 0.896,
              "velocity": 110
            },
            {
              "pitch": 36,
              "beat": 7,
              "duration": 0.896,
              "velocity": 110
            },
            {
              "pitch": 36,
              "beat": 8,
              "duration": 0.896,
              "velocity": 110
            },
            {
              "pitch": 36,
              "beat": 9,
              "duration": 0.896,
              "velocity": 110
            },
            {
              "pitch": 36,
              "beat": 10,
              "duration": 0.896,
              "velocity": 110
            },
            {
              "pitch": 36,
              "beat": 11,
              "duration": 0.896,
              "velocity": 110
            },
            {
              "pitch": 36,
              "beat": 12,
              "duration": 0.896,
              "velocity": 110
            },
            {
              "pitch": 36,
              "beat": 13,
              "duration": 0.896,
              "velocity": 110
            },
            {
              "pitch": 36,
              "beat": 14,
              "duration": 0.896,
              "velocity": 110
            },
            {
              "pitch": 36,
              "beat": 15,
              "duration": 0.896,
              "velocity": 110
            },
            {
              "pitch": 36,
              "beat": 16,
              "duration": 0.896,
              "velocity": 110
            },
            {
              "pitch": 36,
              "beat": 17,
              "duration": 0.896,
              "velocity": 110
            },
            {
              "pitch": 36,
              "beat": 18,
              "duration": 0.896,
              "velocity": 110
            },
            {
              "pitch": 36,
              "beat": 19,
              "duration": 0.896,
              "velocity": 110
            },
            {
              "pitch": 36,
              "beat": 20,
              "duration": 0.896,
              "velocity": 110
            },
            {
              "pitch": 36,
              "beat": 21,
              "duration": 0.896,
              "velocity": 110
            },
            {
              "pitch": 36,
              "beat": 22,
              "duration": 0.896,
              "velocity": 110
            },
            {
              "pitch": 36,
              "beat": 23,
              "duration": 0.896,
              "velocity": 110
            },
            {
              "pitch": 36,
              "beat": 24,
              "duration": 0.896,
              "velocity": 110
            },
            {
              "pitch": 36,
              "beat": 25,
              "duration": 0.896,
              "velocity": 110
            },
            {
              "pitch": 36,
              "beat": 26,
              "duration": 0.896,
              "velocity": 110
            },
            {
              "pitch": 36,
              "beat": 27,
              "duration": 0.896,
              "velocity": 110
            },
            {
              "pitch": 36,
              "beat": 28,
              "duration": 0.896,
              "velocity": 110
            },
            {
              "pitch": 36,
              "beat": 29,
              "duration": 0.896,
              "velocity": 110
            },
            {
              "pitch": 36,
              "beat": 30,
              "duration": 0.896,
              "velocity": 110
            },
            {
              "pitch": 36,
              "beat": 31,
              "duration": 0.896,
              "velocity": 110
            },
            {
              "pitch": 36,
              "beat": 32,
              "duration": 0.896,
              "velocity": 115
            },
            {
              "pitch": 36,
              "beat": 33,
              "duration": 0.896,
              "velocity": 115
            },
            {
              "pitch": 36,
              "beat": 34,
              "duration": 0.896,
              "velocity": 115
            },
            {
              "pitch": 36,
              "beat": 35,
              "duration": 0.896,
              "velocity": 115
            },
            {
              "pitch": 36,
              "beat": 36,
              "duration": 0.896,
              "velocity": 115
            },
            {
              "pitch": 36,
              "beat": 37,
              "duration": 0.896,
              "velocity": 115
            },
            {
              "pitch": 36,
              "beat": 38,
              "duration": 0.896,
              "velocity": 115
            },
            {
              "pitch": 36,
              "beat": 39,
              "duration": 0.896,
              "velocity": 115
            },
            {
              "pitch": 36,
              "beat": 40,
              "duration": 0.896,
              "velocity": 115
            },
            {
              "pitch": 36,
              "beat": 41,
              "duration": 0.896,
              "velocity": 115
            },
            {
              "pitch": 36,
              "beat": 42,
              "duration": 0.896,
              "velocity": 115
            },
            {
              "pitch": 36,
              "beat": 43,
              "duration": 0.896,
              "velocity": 115
            },
            {
              "pitch": 36,
              "beat": 44,
              "duration": 0.896,
              "velocity": 115
            },
            {
              "pitch": 36,
              "beat": 45,
              "duration": 0.896,
              "velocity": 115
            },
            {
              "pitch": 36,
              "beat": 46,
              "duration": 0.896,
              "velocity": 115
            },
            {
              "pitch": 36,
              "beat": 47,
              "duration": 0.896,
              "velocity": 115
            },
            {
              "pitch": 36,
              "beat": 48,
              "duration": 0.896,
              "velocity": 110
            },
            {
              "pitch": 36,
              "beat": 49,
              "duration": 0.896,
              "velocity": 110
            },
            {
              "pitch": 36,
              "beat": 50,
              "duration": 0.896,
              "velocity": 110
            },
            {
              "pitch": 36,
              "beat": 51,
              "duration": 0.896,
              "velocity": 110
            },
            {
              "pitch": 36,
              "beat": 52,
              "duration": 0.896,
              "velocity": 110
            },
            {
              "pitch": 36,
              "beat": 53,
              "duration": 0.896,
              "velocity": 110
            },
            {
              "pitch": 36,
              "beat": 54,
              "duration": 0.896,
              "velocity": 110
            },
            {
              "pitch": 36,
              "beat": 55,
              "duration": 0.896,
              "velocity": 110
            },
            {
              "pitch": 36,
              "beat": 56,
              "duration": 0.896,
              "velocity": 110
            },
            {
              "pitch": 36,
              "beat": 57,
              "duration": 0.896,
              "velocity": 110
            },
            {
              "pitch": 36,
              "beat": 58,
              "duration": 0.896,
              "velocity": 110
            },
            {
              "pitch": 36,
              "beat": 59,
              "duration": 0.896,
              "velocity": 110
            },
            {
              "pitch": 36,
              "beat": 60,
              "duration": 0.896,
              "velocity": 110
            },
            {
              "pitch": 36,
              "beat": 61,
              "duration": 0.896,
              "velocity": 110
            },
            {
              "pitch": 36,
              "beat": 62,
              "duration": 0.896,
              "velocity": 110
            },
            {
              "pitch": 36,
              "beat": 63,
              "duration": 0.896,
              "velocity": 110
            }
          ],
          "isReturn": false,
          "isMaster": false,
          "sends": [
            0,
            0,
            0,
            0
          ],
          "sidechainTrackId": null,
          "sidechainSensitivity": 0.6
        },
        {
          "id": 1,
          "name": "sub",
          "type": "midi",
          "color": "#4ECDC4",
          "muted": false,
          "solo": false,
          "volume": 80,
          "pan": 0,
          "instrument": {
            "pluginId": null,
            "pluginName": null,
            "bypassed": false
          },
          "fx": {
            "pluginId": null,
            "pluginName": null,
            "bypassed": false
          },
          "channelStrip": {
            "pluginId": null,
            "pluginName": null,
            "bypassed": false
          },
          "notes": [],
          "isReturn": false,
          "isMaster": false,
          "sends": [
            0,
            0,
            0,
            0
          ],
          "sidechainTrackId": null,
          "sidechainSensitivity": 0.6
        },
        {
          "id": 2,
          "name": "Master",
          "type": "midi",
          "color": "#45B7D1",
          "muted": false,
          "solo": false,
          "volume": 80,
          "pan": 0,
          "instrument": {
            "pluginId": null,
            "pluginName": null,
            "bypassed": false
          },
          "fx": {
            "pluginId": null,
            "pluginName": null,
            "bypassed": false
          },
          "channelStrip": {
            "pluginId": null,
            "pluginName": null,
            "bypassed": false
          },
          "notes": [],
          "isReturn": false,
          "isMaster": true,
          "sends": [
            0,
            0,
            0,
            0
          ],
          "sidechainTrackId": null,
          "sidechainSensitivity": 0.6
        }
      ],
      "sections": [],
      "totalBars": 1,
      "mixerOpen": true,
      "returnsOpen": false,
      "availableInstruments": [
        {
          "id": "/Library/Audio/Plug-Ins/VST3/Buchla Easel V.vst3",
          "name": "Buchla Easel V",
          "vendor": "",
          "category": "instrument"
        },
        {
          "id": "/Library/Audio/Plug-Ins/VST3/CS-80 V4.vst3",
          "name": "CS-80 V4",
          "vendor": "",
          "category": "instrument"
        },
        {
          "id": "/Library/Audio/Plug-Ins/VST3/DX7 V.vst3",
          "name": "DX7 V",
          "vendor": "",
          "category": "instrument"
        },
        {
          "id": "/Library/Audio/Plug-Ins/VST3/Heartbeat.vst3",
          "name": "Heartbeat",
          "vendor": "",
          "category": "instrument"
        },
        {
          "id": "/Library/Audio/Plug-Ins/VST3/Jun-6 V.vst3",
          "name": "Jun-6 V",
          "vendor": "",
          "category": "instrument"
        },
        {
          "id": "/Library/Audio/Plug-Ins/VST3/Jup-8 V4.vst3",
          "name": "Jup-8 V4",
          "vendor": "",
          "category": "instrument"
        },
        {
          "id": "/Library/Audio/Plug-Ins/VST3/Mini V3.vst3",
          "name": "Mini V3",
          "vendor": "",
          "category": "instrument"
        },
        {
          "id": "/Library/Audio/Plug-Ins/VST3/OB-Xa V.vst3",
          "name": "OB-Xa V",
          "vendor": "",
          "category": "instrument"
        },
        {
          "id": "/Library/Audio/Plug-Ins/VST3/Prophet-5 V.vst3",
          "name": "Prophet-5 V",
          "vendor": "",
          "category": "instrument"
        },
        {
          "id": "/Library/Audio/Plug-Ins/Components/Kick 2.component",
          "name": "Kick 2",
          "vendor": "Sonic Academy",
          "category": "instrument"
        }
      ],
      "availableEffects": [
        {
          "id": "/Library/Audio/Plug-Ins/VST3/Console 1.vst3",
          "name": "Console 1",
          "vendor": "",
          "category": "channel-strip"
        },
        {
          "id": "/Library/Audio/Plug-Ins/VST3/American Class A.vst3",
          "name": "American Class A",
          "vendor": "",
          "category": "channel-strip"
        },
        {
          "id": "/Library/Audio/Plug-Ins/VST3/British Class A.vst3",
          "name": "British Class A",
          "vendor": "",
          "category": "channel-strip"
        },
        {
          "id": "/Library/Audio/Plug-Ins/VST3/Weiss DS1-MK3.vst3",
          "name": "Weiss DS1-MK3",
          "vendor": "",
          "category": "channel-strip"
        },
        {
          "id": "/Library/Audio/Plug-Ins/VST3/Summit Audio Grand Channel.vst3",
          "name": "Summit Audio Grand Channel",
          "vendor": "",
          "category": "channel-strip"
        }
      ],
      "availableFx": [
        {
          "id": "/Library/Audio/Plug-Ins/VST3/Tube Delay.vst3",
          "name": "Tube Delay",
          "vendor": "",
          "category": "fx"
        },
        {
          "id": "/Library/Audio/Plug-Ins/VST3/ValhallaRoom.vst3",
          "name": "ValhallaRoom",
          "vendor": "",
          "category": "fx"
        },
        {
          "id": "/Library/Audio/Plug-Ins/VST3/Widener.vst3",
          "name": "Widener",
          "vendor": "",
          "category": "fx"
        },
        {
          "id": "/Library/Audio/Plug-Ins/VST3/soothe2.vst3",
          "name": "soothe2",
          "vendor": "",
          "category": "fx"
        },
        {
          "id": "/Library/Audio/Plug-Ins/VST3/Dist TUBE-CULTURE.vst3",
          "name": "Dist TUBE-CULTURE",
          "vendor": "",
          "category": "fx"
        }
      ]
    },
    "version": 1
  },
  "songbird-transport": {
    "state": {
      "bpm": 120,
      "looping": true,
      "keySignature": null
    },
    "version": 1
  }
}